<mxfile host="app.diagrams.net" agent="Mozilla/5.0 (X11; Linux x86_64; rv:127.0) Gecko/20100101 Firefox/127.0" version="24.7.16">
  <diagram name="Page-1" id="SqGpKZy3rk-pt0Fl035s">
    <mxGraphModel dx="2049" dy="1111" grid="1" gridSize="10" guides="1" tooltips="1" connect="1" arrows="1" fold="1" page="1" pageScale="1" pageWidth="850" pageHeight="1100" math="0" shadow="0">
      <root>
        <mxCell id="0" />
        <mxCell id="1" parent="0" />
        <mxCell id="9qEvB95c6-eQE3mT2UkR-4" value="Website" style="shape=umlLifeline;perimeter=lifelinePerimeter;whiteSpace=wrap;html=1;container=1;dropTarget=0;collapsible=0;recursiveResize=0;outlineConnect=0;portConstraint=eastwest;newEdgeStyle={&quot;curved&quot;:0,&quot;rounded&quot;:0};" parent="1" vertex="1">
          <mxGeometry x="355" y="185" width="100" height="730" as="geometry" />
        </mxCell>
        <mxCell id="9qEvB95c6-eQE3mT2UkR-8" value="" style="html=1;points=[[0,0,0,0,5],[0,1,0,0,-5],[1,0,0,0,5],[1,1,0,0,-5]];perimeter=orthogonalPerimeter;outlineConnect=0;targetShapes=umlLifeline;portConstraint=eastwest;newEdgeStyle={&quot;curved&quot;:0,&quot;rounded&quot;:0};" parent="9qEvB95c6-eQE3mT2UkR-4" vertex="1">
          <mxGeometry x="45" y="100" width="10" height="630" as="geometry" />
        </mxCell>
        <mxCell id="9qEvB95c6-eQE3mT2UkR-5" value="DB Server" style="shape=umlLifeline;perimeter=lifelinePerimeter;whiteSpace=wrap;html=1;container=1;dropTarget=0;collapsible=0;recursiveResize=0;outlineConnect=0;portConstraint=eastwest;newEdgeStyle={&quot;curved&quot;:0,&quot;rounded&quot;:0};" parent="1" vertex="1">
          <mxGeometry x="505" y="185" width="100" height="730" as="geometry" />
        </mxCell>
        <mxCell id="9qEvB95c6-eQE3mT2UkR-11" value="" style="html=1;points=[[0,0,0,0,5],[0,1,0,0,-5],[1,0,0,0,5],[1,1,0,0,-5]];perimeter=orthogonalPerimeter;outlineConnect=0;targetShapes=umlLifeline;portConstraint=eastwest;newEdgeStyle={&quot;curved&quot;:0,&quot;rounded&quot;:0};" parent="9qEvB95c6-eQE3mT2UkR-5" vertex="1">
          <mxGeometry x="45" y="110" width="10" height="80" as="geometry" />
        </mxCell>
        <mxCell id="9qEvB95c6-eQE3mT2UkR-19" value="" style="html=1;points=[[0,0,0,0,5],[0,1,0,0,-5],[1,0,0,0,5],[1,1,0,0,-5]];perimeter=orthogonalPerimeter;outlineConnect=0;targetShapes=umlLifeline;portConstraint=eastwest;newEdgeStyle={&quot;curved&quot;:0,&quot;rounded&quot;:0};" parent="9qEvB95c6-eQE3mT2UkR-5" vertex="1">
          <mxGeometry x="45" y="280" width="10" height="40" as="geometry" />
        </mxCell>
        <mxCell id="9qEvB95c6-eQE3mT2UkR-35" value="" style="html=1;points=[[0,0,0,0,5],[0,1,0,0,-5],[1,0,0,0,5],[1,1,0,0,-5]];perimeter=orthogonalPerimeter;outlineConnect=0;targetShapes=umlLifeline;portConstraint=eastwest;newEdgeStyle={&quot;curved&quot;:0,&quot;rounded&quot;:0};" parent="9qEvB95c6-eQE3mT2UkR-5" vertex="1">
          <mxGeometry x="45" y="410" width="10" height="50" as="geometry" />
        </mxCell>
        <mxCell id="9qEvB95c6-eQE3mT2UkR-37" value="" style="html=1;points=[[0,0,0,0,5],[0,1,0,0,-5],[1,0,0,0,5],[1,1,0,0,-5]];perimeter=orthogonalPerimeter;outlineConnect=0;targetShapes=umlLifeline;portConstraint=eastwest;newEdgeStyle={&quot;curved&quot;:0,&quot;rounded&quot;:0};" parent="9qEvB95c6-eQE3mT2UkR-5" vertex="1">
          <mxGeometry x="45" y="480" width="10" height="50" as="geometry" />
        </mxCell>
        <mxCell id="9qEvB95c6-eQE3mT2UkR-44" value="" style="html=1;points=[[0,0,0,0,5],[0,1,0,0,-5],[1,0,0,0,5],[1,1,0,0,-5]];perimeter=orthogonalPerimeter;outlineConnect=0;targetShapes=umlLifeline;portConstraint=eastwest;newEdgeStyle={&quot;curved&quot;:0,&quot;rounded&quot;:0};" parent="9qEvB95c6-eQE3mT2UkR-5" vertex="1">
          <mxGeometry x="45" y="610" width="10" height="40" as="geometry" />
        </mxCell>
        <mxCell id="9qEvB95c6-eQE3mT2UkR-46" value="" style="html=1;points=[[0,0,0,0,5],[0,1,0,0,-5],[1,0,0,0,5],[1,1,0,0,-5]];perimeter=orthogonalPerimeter;outlineConnect=0;targetShapes=umlLifeline;portConstraint=eastwest;newEdgeStyle={&quot;curved&quot;:0,&quot;rounded&quot;:0};" parent="9qEvB95c6-eQE3mT2UkR-5" vertex="1">
          <mxGeometry x="45" y="660" width="10" height="40" as="geometry" />
        </mxCell>
        <mxCell id="9qEvB95c6-eQE3mT2UkR-9" value="" style="html=1;verticalAlign=bottom;endArrow=block;curved=0;rounded=0;" parent="1" target="9qEvB95c6-eQE3mT2UkR-8" edge="1">
          <mxGeometry width="80" relative="1" as="geometry">
            <mxPoint x="255" y="295" as="sourcePoint" />
            <mxPoint x="405" y="295" as="targetPoint" />
          </mxGeometry>
        </mxCell>
        <mxCell id="9qEvB95c6-eQE3mT2UkR-10" value="&lt;div&gt;Get Orders&lt;/div&gt;" style="html=1;verticalAlign=bottom;endArrow=block;curved=0;rounded=0;" parent="1" edge="1">
          <mxGeometry x="0.0036" width="80" relative="1" as="geometry">
            <mxPoint x="415" y="305" as="sourcePoint" />
            <mxPoint x="545" y="305" as="targetPoint" />
            <Array as="points">
              <mxPoint x="485" y="305" />
            </Array>
            <mxPoint as="offset" />
          </mxGeometry>
        </mxCell>
        <mxCell id="9qEvB95c6-eQE3mT2UkR-12" value="&lt;div&gt;Orders&lt;/div&gt;" style="html=1;verticalAlign=bottom;endArrow=open;dashed=1;endSize=8;curved=0;rounded=0;" parent="1" edge="1">
          <mxGeometry relative="1" as="geometry">
            <mxPoint x="545" y="365" as="sourcePoint" />
            <mxPoint x="415" y="365" as="targetPoint" />
          </mxGeometry>
        </mxCell>
        <mxCell id="9qEvB95c6-eQE3mT2UkR-13" value="Display Orders" style="html=1;verticalAlign=bottom;endArrow=open;dashed=1;endSize=8;curved=0;rounded=0;" parent="1" target="9qEvB95c6-eQE3mT2UkR-27" edge="1">
          <mxGeometry x="0.0714" y="-10" relative="1" as="geometry">
            <mxPoint x="400" y="375" as="sourcePoint" />
            <mxPoint x="260" y="375" as="targetPoint" />
            <mxPoint as="offset" />
          </mxGeometry>
        </mxCell>
        <mxCell id="9qEvB95c6-eQE3mT2UkR-16" style="edgeStyle=orthogonalEdgeStyle;rounded=0;orthogonalLoop=1;jettySize=auto;html=1;curved=0;" parent="1" edge="1">
          <mxGeometry relative="1" as="geometry">
            <mxPoint x="260" y="465" as="sourcePoint" />
            <mxPoint x="400" y="465" as="targetPoint" />
          </mxGeometry>
        </mxCell>
        <mxCell id="9qEvB95c6-eQE3mT2UkR-17" value="Order ID" style="edgeLabel;html=1;align=center;verticalAlign=middle;resizable=0;points=[];" parent="9qEvB95c6-eQE3mT2UkR-16" vertex="1" connectable="0">
          <mxGeometry x="-0.1571" y="2" relative="1" as="geometry">
            <mxPoint x="11" y="-18" as="offset" />
          </mxGeometry>
        </mxCell>
        <mxCell id="9qEvB95c6-eQE3mT2UkR-18" value="Order ID" style="html=1;verticalAlign=bottom;endArrow=block;curved=0;rounded=0;" parent="1" target="9qEvB95c6-eQE3mT2UkR-19" edge="1">
          <mxGeometry width="80" relative="1" as="geometry">
            <mxPoint x="415" y="475" as="sourcePoint" />
            <mxPoint x="535" y="475" as="targetPoint" />
          </mxGeometry>
        </mxCell>
        <mxCell id="9qEvB95c6-eQE3mT2UkR-20" value="Order Info" style="html=1;verticalAlign=bottom;endArrow=open;dashed=1;endSize=8;curved=0;rounded=0;endFill=0;" parent="1" edge="1">
          <mxGeometry x="1" y="70" relative="1" as="geometry">
            <mxPoint x="410" y="505" as="sourcePoint" />
            <mxPoint x="415" y="505" as="targetPoint" />
            <mxPoint x="70" y="70" as="offset" />
          </mxGeometry>
        </mxCell>
        <mxCell id="9qEvB95c6-eQE3mT2UkR-21" value="Display Order" style="html=1;verticalAlign=bottom;endArrow=open;dashed=1;endSize=8;curved=0;rounded=0;" parent="1" target="9qEvB95c6-eQE3mT2UkR-27" edge="1">
          <mxGeometry x="-0.0702" y="-9" relative="1" as="geometry">
            <mxPoint x="394.5" y="524" as="sourcePoint" />
            <mxPoint x="245" y="524" as="targetPoint" />
            <mxPoint x="1" as="offset" />
          </mxGeometry>
        </mxCell>
        <mxCell id="9qEvB95c6-eQE3mT2UkR-26" value="" style="html=1;verticalAlign=bottom;endArrow=open;dashed=1;endSize=8;curved=0;rounded=0;" parent="1" target="9qEvB95c6-eQE3mT2UkR-8" edge="1">
          <mxGeometry relative="1" as="geometry">
            <mxPoint x="545" y="505" as="sourcePoint" />
            <mxPoint x="410" y="505" as="targetPoint" />
          </mxGeometry>
        </mxCell>
        <mxCell id="9qEvB95c6-eQE3mT2UkR-27" value="" style="shape=umlLifeline;perimeter=lifelinePerimeter;whiteSpace=wrap;html=1;container=1;dropTarget=0;collapsible=0;recursiveResize=0;outlineConnect=0;portConstraint=eastwest;newEdgeStyle={&quot;curved&quot;:0,&quot;rounded&quot;:0};participant=umlActor;" parent="1" vertex="1">
          <mxGeometry x="245" y="185" width="20" height="730" as="geometry" />
        </mxCell>
        <mxCell id="9qEvB95c6-eQE3mT2UkR-28" value="Admin" style="text;html=1;align=center;verticalAlign=middle;resizable=0;points=[];autosize=1;strokeColor=none;fillColor=none;" parent="1" vertex="1">
          <mxGeometry x="225" y="150" width="60" height="30" as="geometry" />
        </mxCell>
        <mxCell id="9qEvB95c6-eQE3mT2UkR-29" value="&lt;div&gt;Manage Orders&lt;/div&gt;" style="text;html=1;align=center;verticalAlign=middle;resizable=0;points=[];autosize=1;strokeColor=none;fillColor=none;" parent="1" vertex="1">
          <mxGeometry x="275" y="265" width="110" height="30" as="geometry" />
        </mxCell>
        <mxCell id="9qEvB95c6-eQE3mT2UkR-31" value="Issue Refund" style="html=1;verticalAlign=bottom;endArrow=block;curved=0;rounded=0;" parent="1" target="9qEvB95c6-eQE3mT2UkR-8" edge="1">
          <mxGeometry x="0.0033" width="80" relative="1" as="geometry">
            <mxPoint x="255" y="595" as="sourcePoint" />
            <mxPoint x="385" y="595" as="targetPoint" />
            <mxPoint as="offset" />
          </mxGeometry>
        </mxCell>
        <mxCell id="9qEvB95c6-eQE3mT2UkR-34" value="Payment ID" style="html=1;verticalAlign=bottom;endArrow=block;curved=0;rounded=0;" parent="1" target="9qEvB95c6-eQE3mT2UkR-35" edge="1">
          <mxGeometry width="80" relative="1" as="geometry">
            <mxPoint x="415" y="605" as="sourcePoint" />
            <mxPoint x="535" y="605" as="targetPoint" />
          </mxGeometry>
        </mxCell>
        <mxCell id="9qEvB95c6-eQE3mT2UkR-36" value="Card Info" style="html=1;verticalAlign=bottom;endArrow=open;dashed=1;endSize=8;curved=0;rounded=0;" parent="1" target="9qEvB95c6-eQE3mT2UkR-8" edge="1">
          <mxGeometry relative="1" as="geometry">
            <mxPoint x="545" y="635" as="sourcePoint" />
            <mxPoint x="435" y="635" as="targetPoint" />
          </mxGeometry>
        </mxCell>
        <mxCell id="9qEvB95c6-eQE3mT2UkR-38" value="Reverse Charge" style="html=1;verticalAlign=bottom;endArrow=block;curved=0;rounded=0;" parent="1" target="9qEvB95c6-eQE3mT2UkR-37" edge="1">
          <mxGeometry width="80" relative="1" as="geometry">
            <mxPoint x="415" y="675" as="sourcePoint" />
            <mxPoint x="495" y="675" as="targetPoint" />
          </mxGeometry>
        </mxCell>
        <mxCell id="9qEvB95c6-eQE3mT2UkR-40" value="Success" style="html=1;verticalAlign=bottom;endArrow=open;dashed=1;endSize=8;curved=0;rounded=0;" parent="1" edge="1">
          <mxGeometry relative="1" as="geometry">
            <mxPoint x="550" y="705" as="sourcePoint" />
            <mxPoint x="415" y="705" as="targetPoint" />
          </mxGeometry>
        </mxCell>
        <mxCell id="9qEvB95c6-eQE3mT2UkR-41" value="Display Success" style="html=1;verticalAlign=bottom;endArrow=open;dashed=1;endSize=8;curved=0;rounded=0;" parent="1" edge="1">
          <mxGeometry relative="1" as="geometry">
            <mxPoint x="402.75" y="715" as="sourcePoint" />
            <mxPoint x="257.25" y="715" as="targetPoint" />
          </mxGeometry>
        </mxCell>
        <mxCell id="9qEvB95c6-eQE3mT2UkR-42" value="Cancel Order" style="html=1;verticalAlign=bottom;endArrow=block;curved=0;rounded=0;" parent="1" target="9qEvB95c6-eQE3mT2UkR-8" edge="1">
          <mxGeometry width="80" relative="1" as="geometry">
            <mxPoint x="255" y="785" as="sourcePoint" />
            <mxPoint x="335" y="785" as="targetPoint" />
          </mxGeometry>
        </mxCell>
        <mxCell id="9qEvB95c6-eQE3mT2UkR-43" value="Delete Order" style="html=1;verticalAlign=bottom;endArrow=block;curved=0;rounded=0;" parent="1" source="9qEvB95c6-eQE3mT2UkR-8" edge="1">
          <mxGeometry width="80" relative="1" as="geometry">
            <mxPoint x="435" y="805" as="sourcePoint" />
            <mxPoint x="550" y="805" as="targetPoint" />
          </mxGeometry>
        </mxCell>
        <mxCell id="9qEvB95c6-eQE3mT2UkR-45" value="Success" style="html=1;verticalAlign=bottom;endArrow=open;dashed=1;endSize=8;curved=0;rounded=0;" parent="1" target="9qEvB95c6-eQE3mT2UkR-8" edge="1">
          <mxGeometry relative="1" as="geometry">
            <mxPoint x="545" y="825" as="sourcePoint" />
            <mxPoint x="465" y="825" as="targetPoint" />
          </mxGeometry>
        </mxCell>
        <mxCell id="9qEvB95c6-eQE3mT2UkR-47" value="Update Inventory" style="html=1;verticalAlign=bottom;endArrow=block;curved=0;rounded=0;" parent="1" source="9qEvB95c6-eQE3mT2UkR-8" target="9qEvB95c6-eQE3mT2UkR-46" edge="1">
          <mxGeometry width="80" relative="1" as="geometry">
            <mxPoint x="435" y="855" as="sourcePoint" />
            <mxPoint x="545" y="855" as="targetPoint" />
            <Array as="points">
              <mxPoint x="525" y="855" />
            </Array>
          </mxGeometry>
        </mxCell>
        <mxCell id="9qEvB95c6-eQE3mT2UkR-48" value="Success" style="html=1;verticalAlign=bottom;endArrow=open;dashed=1;endSize=8;curved=0;rounded=0;" parent="1" edge="1">
          <mxGeometry relative="1" as="geometry">
            <mxPoint x="550" y="875" as="sourcePoint" />
            <mxPoint x="415" y="875" as="targetPoint" />
          </mxGeometry>
        </mxCell>
        <mxCell id="9qEvB95c6-eQE3mT2UkR-49" value="Display Success" style="html=1;verticalAlign=bottom;endArrow=open;dashed=1;endSize=8;curved=0;rounded=0;" parent="1" target="9qEvB95c6-eQE3mT2UkR-27" edge="1">
          <mxGeometry relative="1" as="geometry">
            <mxPoint x="397.5" y="885" as="sourcePoint" />
            <mxPoint x="262.5" y="885" as="targetPoint" />
          </mxGeometry>
        </mxCell>
      </root>
    </mxGraphModel>
  </diagram>
</mxfile>
